<svg xmlns="http://www.w3.org/2000/svg" viewBox="0 0 32 32" width="32" height="32" fill="none">
  <defs>
    <linearGradient id="rocketGrad" x1="0%" y1="0%" x2="100%" y2="100%">
      <stop offset="0%" stop-color="#3B82F6" />
      <stop offset="100%" stop-color="#8B5CF6" />
    </linearGradient>
    <linearGradient id="wingGrad" x1="0%" y1="0%" x2="100%" y2="100%">
      <stop offset="0%" stop-color="#1D4ED8" />
      <stop offset="100%" stop-color="#6D28D9" />
    </linearGradient>
    <linearGradient id="flameGrad" x1="0%" y1="0%" x2="0%" y2="100%">
      <stop offset="0%" stop-color="#F59E0B" />
      <stop offset="100%" stop-color="#EF4444" />
    </linearGradient>
  </defs>
  <!-- Flames -->
  <path d="M16 24c-2 2-3 5-3 5s3 1 3-1 3-1 3-1-1-3-3-3z" fill="url(#flameGrad)" />
  <path d="M16 24c-1 1-1.5 3-1.5 3s1.5 .6 1.5-.6 1.5-.6 1.5-.6-.5-1.8-1.5-1.8z" fill="#FDE047" />
  <!-- Wings -->
  <path d="M9 20l-5 4v3h4l3-5-2-2z" fill="url(#wingGrad)" />
  <path d="M23 20l5 4v3h-4l-3-5 2-2z" fill="url(#wingGrad)" />
  <!-- Body -->
  <path d="M16 2C16 2 9 8 9 18c0 3 3 5 7 5s7-2 7-5C23 8 16 2 16 2z" fill="url(#rocketGrad)" />
  <!-- Window -->
  <circle cx="16" cy="13" r="3.5" fill="#FFFFFF" />
  <circle cx="16" cy="13" r="2.5" fill="#38BDF8" />
  <!-- Highlights -->
  <path d="M16 3c-3 3-4.5 7-4.5 11h9C20.5 10 19 6 16 3z" fill="#FFFFFF" opacity="0.15" />
</svg>